<svg width="14" height="16" viewBox="0 0 14 16" fill="none" xmlns="http://www.w3.org/2000/svg">
<path fill-rule="evenodd" clip-rule="evenodd" d="M3.11111 4.25C3.11111 3.25544 3.52083 2.30161 4.25014 1.59835C4.97945 0.895088 5.9686 0.5 7 0.5C8.0314 0.5 9.02055 0.895088 9.74986 1.59835C10.4792 2.30161 10.8889 3.25544 10.8889 4.25C10.8889 5.24456 10.4792 6.19839 9.74986 6.90165C9.02055 7.60491 8.0314 8 7 8C5.9686 8 4.97945 7.60491 4.25014 6.90165C3.52083 6.19839 3.11111 5.24456 3.11111 4.25ZM7 2C6.69358 2 6.39017 2.0582 6.10707 2.17127C5.82398 2.28434 5.56675 2.45008 5.35008 2.65901C5.13341 2.86794 4.96154 3.11598 4.84428 3.38896C4.72702 3.66194 4.66667 3.95453 4.66667 4.25C4.66667 4.54547 4.72702 4.83806 4.84428 5.11104C4.96154 5.38402 5.13341 5.63206 5.35008 5.84099C5.56675 6.04992 5.82398 6.21566 6.10707 6.32873C6.39017 6.4418 6.69358 6.5 7 6.5C7.61884 6.5 8.21233 6.26295 8.64992 5.84099C9.0875 5.41903 9.33333 4.84674 9.33333 4.25C9.33333 3.65326 9.0875 3.08097 8.64992 2.65901C8.21233 2.23705 7.61884 2 7 2ZM7 8.75C8.86356 8.75 10.5583 9.2705 11.8051 10.004C12.4273 10.37 12.9593 10.802 13.3436 11.2715C13.7216 11.7327 14 12.2847 14 12.875C14 13.5087 13.6803 14.0083 13.2199 14.3645C12.7843 14.702 12.2096 14.9255 11.599 15.0815C10.3717 15.3942 8.73367 15.5 7 15.5C5.26633 15.5 3.62833 15.395 2.401 15.0815C1.79044 14.9255 1.21567 14.702 0.780111 14.3645C0.318889 14.0075 0 13.5087 0 12.875C0 12.2847 0.278445 11.7327 0.656445 11.2708C1.04067 10.802 1.57189 10.3707 2.19489 10.0033C3.44167 9.27125 5.13722 8.75 7 8.75ZM7 10.25C5.42656 10.25 4.011 10.6925 3.00533 11.2843C2.50211 11.5798 2.12256 11.9008 1.87756 12.2008C1.62556 12.5083 1.55556 12.7408 1.55556 12.875C1.55556 12.9665 1.58433 13.0633 1.75389 13.1945C1.94756 13.3445 2.28433 13.4997 2.79922 13.631C3.82433 13.8935 5.29744 14 7 14C8.70333 14 10.1757 13.8927 11.2 13.631C11.7157 13.4997 12.0524 13.3445 12.2461 13.1945C12.4157 13.0633 12.4444 12.9665 12.4444 12.875C12.4444 12.74 12.3744 12.5083 12.1232 12.2008C11.8774 11.9008 11.4979 11.5798 10.9947 11.2843C9.989 10.6917 8.57344 10.25 7 10.25Z" fill="#707070"/>
</svg>
