<svg width="18" height="16" viewBox="0 0 18 16" fill="none" xmlns="http://www.w3.org/2000/svg">
<path fill-rule="evenodd" clip-rule="evenodd" d="M7.27876 0.5H10.7212C12.26 0.5 13.4789 0.5 14.4325 0.631143C15.4136 0.766572 16.2081 1.05114 16.8352 1.69229C17.4614 2.33429 17.7393 3.14771 17.8716 4.15229C17.947 4.72914 17.9779 5.40029 17.9905 6.17771C18.0009 6.24292 18.002 6.30932 17.9938 6.37486C17.9989 6.85943 18.0008 7.38514 17.9997 7.952V8.048C17.9997 9.62343 17.9997 10.8714 17.8716 11.8477C17.7393 12.8523 17.4614 13.6657 16.8352 14.3077C16.2081 14.9489 15.4136 15.2334 14.4325 15.3689C13.4781 15.5 12.26 15.5 10.7212 15.5H7.27876C5.74002 15.5 4.52108 15.5 3.56753 15.3689C2.58636 15.2334 1.79187 14.9489 1.16482 14.3077C0.538612 13.6657 0.260668 12.8523 0.128393 11.8477C0.000304427 10.8706 0.000304432 9.62343 0.000304432 8.048V7.952C-0.00081181 7.38514 0.00114159 6.85943 0.00616467 6.37486C-0.00227791 6.30936 -0.00143197 6.24296 0.00867623 6.17771C0.0220711 5.40029 0.0530468 4.72914 0.128393 4.15229C0.260668 3.14771 0.538612 2.33429 1.16482 1.69229C1.79187 1.05114 2.58636 0.766572 3.56753 0.631143C4.52192 0.5 5.74002 0.5 7.27876 0.5ZM1.25775 6.92857C1.25663 7.26114 1.25608 7.61829 1.25608 8C1.25608 9.63457 1.25775 10.796 1.37328 11.6771C1.4863 12.5386 1.69894 13.0357 2.05307 13.3983C2.4072 13.7609 2.89277 13.9786 3.73497 14.0943C4.59559 14.2126 5.72913 14.2143 7.32564 14.2143H10.6744C12.2709 14.2143 13.4052 14.2126 14.2659 14.0943C15.1072 13.9786 15.5928 13.7609 15.9469 13.3983C16.3011 13.0357 16.5137 12.5386 16.6267 11.6763C16.7423 10.7951 16.7439 9.63457 16.7439 8C16.7439 7.61829 16.7434 7.26114 16.7423 6.92857H1.25775ZM16.7222 5.64286H1.27784C1.29459 5.13971 1.32305 4.70514 1.37328 4.32286C1.4863 3.46143 1.69894 2.96429 2.05307 2.60171C2.4072 2.23914 2.89277 2.02143 3.73497 1.90571C4.59559 1.78743 5.72913 1.78571 7.32564 1.78571H10.6744C12.2709 1.78571 13.4052 1.78743 14.2659 1.90571C15.1072 2.02143 15.5928 2.23914 15.9469 2.60171C16.3011 2.96429 16.5137 3.46143 16.6267 4.32371C16.677 4.70514 16.7054 5.13971 16.7222 5.64286ZM3.34903 11.4286C3.34903 11.2581 3.41518 11.0946 3.53293 10.974C3.65068 10.8534 3.81039 10.7857 3.97691 10.7857H7.32564C7.49216 10.7857 7.65187 10.8534 7.76962 10.974C7.88737 11.0946 7.95352 11.2581 7.95352 11.4286C7.95352 11.5991 7.88737 11.7626 7.76962 11.8831C7.65187 12.0037 7.49216 12.0714 7.32564 12.0714H3.97691C3.81039 12.0714 3.65068 12.0037 3.53293 11.8831C3.41518 11.7626 3.34903 11.5991 3.34903 11.4286ZM8.7907 11.4286C8.7907 11.2581 8.85686 11.0946 8.97461 10.974C9.09236 10.8534 9.25206 10.7857 9.41859 10.7857H10.6744C10.8409 10.7857 11.0006 10.8534 11.1183 10.974C11.2361 11.0946 11.3022 11.2581 11.3022 11.4286C11.3022 11.5991 11.2361 11.7626 11.1183 11.8831C11.0006 12.0037 10.8409 12.0714 10.6744 12.0714H9.41859C9.25206 12.0714 9.09236 12.0037 8.97461 11.8831C8.85686 11.7626 8.7907 11.5991 8.7907 11.4286Z" fill="#707070"/>
</svg>
