<svg width="15" height="16" viewBox="0 0 15 16" fill="none" xmlns="http://www.w3.org/2000/svg">
<path fill-rule="evenodd" clip-rule="evenodd" d="M8.68272 0.753769C8.31038 0.586453 7.90746 0.5 7.5 0.5C7.09254 0.5 6.68962 0.586453 6.31728 0.753769C3.88043 1.8483 2.03804 3.28406 1.08457 4.11452C0.470217 4.64959 0.139565 5.4095 0.0988043 6.1948C0.0348538 7.42488 0.00190832 8.65641 0 9.8882C0 11.0262 0.0319565 12.1234 0.0671739 12.9839C0.0912159 13.6254 0.355063 14.2338 0.805463 14.6862C1.25586 15.1387 1.85928 15.4016 2.49391 15.4219C3.62935 15.4611 5.3113 15.5 7.5 15.5C9.6887 15.5 11.3707 15.4611 12.5061 15.4219C13.1408 15.4016 13.7442 15.1387 14.1946 14.6861C14.6451 14.2336 14.9089 13.6251 14.9328 12.9836C14.968 12.1238 15 11.0262 15 9.88787C15 8.4086 14.9459 7.05757 14.9012 6.1948C14.8604 5.4095 14.5298 4.64926 13.9154 4.11452C12.9616 3.28373 11.1192 1.84863 8.68272 0.753769ZM6.84685 1.95875C7.05242 1.86636 7.27487 1.81863 7.49984 1.81863C7.7248 1.81863 7.94726 1.86636 8.15283 1.95875C10.4348 2.98405 12.1696 4.33409 13.0643 5.11378C13.3842 5.39236 13.5747 5.80314 13.5985 6.2637C13.6425 7.1123 13.6957 8.43893 13.6957 9.8882C13.6957 11.0025 13.6643 12.0812 13.6298 12.9292C13.6194 13.2385 13.4927 13.5322 13.2757 13.7504C13.0586 13.9686 12.7674 14.095 12.4614 14.1038C11.3403 14.1427 9.67337 14.1816 7.5 14.1816C5.32663 14.1816 3.65967 14.1427 2.53859 14.1038C2.2327 14.0949 1.94164 13.9686 1.72465 13.7504C1.50766 13.5322 1.38103 13.2387 1.37054 12.9295C1.32819 11.9163 1.30612 10.9023 1.30435 9.8882C1.30435 8.43893 1.3575 7.1123 1.40152 6.2637C1.42533 5.80314 1.61576 5.39236 1.93565 5.11378C2.83076 4.33409 4.56489 2.98405 6.84685 1.95875ZM4.8913 11.3757C4.6751 11.3757 4.46774 11.4625 4.31486 11.6171C4.16198 11.7717 4.07609 11.9813 4.07609 12.1999C4.07609 12.4185 4.16198 12.6281 4.31486 12.7827C4.46774 12.9373 4.6751 13.0241 4.8913 13.0241H10.1087C10.3249 13.0241 10.5323 12.9373 10.6851 12.7827C10.838 12.6281 10.9239 12.4185 10.9239 12.1999C10.9239 11.9813 10.838 11.7717 10.6851 11.6171C10.5323 11.4625 10.3249 11.3757 10.1087 11.3757H4.8913Z" fill="black"/>
</svg>
