<svg width="15" height="12" viewBox="0 0 15 12" fill="none" xmlns="http://www.w3.org/2000/svg">
<path d="M0 0.947368C0 0.696111 0.0987719 0.455144 0.274587 0.277478C0.450403 0.0998116 0.68886 0 0.9375 0H10.3125C10.5611 0 10.7996 0.0998116 10.9754 0.277478C11.1512 0.455144 11.25 0.696111 11.25 0.947368C11.25 1.19863 11.1512 1.43959 10.9754 1.61726C10.7996 1.79493 10.5611 1.89474 10.3125 1.89474H0.9375C0.68886 1.89474 0.450403 1.79493 0.274587 1.61726C0.0987719 1.43959 0 1.19863 0 0.947368ZM0 11.0526C0 10.8014 0.0987719 10.5604 0.274587 10.3827C0.450403 10.2051 0.68886 10.1053 0.9375 10.1053H9.0625C9.31114 10.1053 9.5496 10.2051 9.72541 10.3827C9.90123 10.5604 10 10.8014 10 11.0526C10 11.3039 9.90123 11.5449 9.72541 11.7225C9.5496 11.9002 9.31114 12 9.0625 12H0.9375C0.68886 12 0.450403 11.9002 0.274587 11.7225C0.0987719 11.5449 0 11.3039 0 11.0526ZM0.9375 5.05263C0.68886 5.05263 0.450403 5.15244 0.274587 5.33011C0.0987719 5.50778 0 5.74874 0 6C0 6.25126 0.0987719 6.49222 0.274587 6.66989C0.450403 6.84756 0.68886 6.94737 0.9375 6.94737H14.0625C14.3111 6.94737 14.5496 6.84756 14.7254 6.66989C14.9012 6.49222 15 6.25126 15 6C15 5.74874 14.9012 5.50778 14.7254 5.33011C14.5496 5.15244 14.3111 5.05263 14.0625 5.05263H0.9375Z" fill="#707070"/>
</svg>
