<svg width="17" height="18" viewBox="0 0 17 18" fill="none" xmlns="http://www.w3.org/2000/svg">
<path d="M14.5215 7.71775H12.4744C10.7957 7.71775 9.42857 6.35067 9.42857 4.67192V2.62484C9.42857 2.23525 9.10982 1.9165 8.72023 1.9165H5.7169C3.53523 1.9165 1.77148 3.33317 1.77148 5.86192V12.1378C1.77148 14.6665 3.53523 16.0832 5.7169 16.0832H11.2844C13.4661 16.0832 15.2298 14.6665 15.2298 12.1378V8.42609C15.2298 8.0365 14.9111 7.71775 14.5215 7.71775ZM8.69898 11.6773L7.28232 13.094C7.23273 13.1436 7.16898 13.1861 7.10523 13.2073C7.04148 13.2357 6.97773 13.2498 6.9069 13.2498C6.83607 13.2498 6.77232 13.2357 6.70857 13.2073C6.6519 13.1861 6.59523 13.1436 6.55273 13.1011C6.54565 13.094 6.53857 13.094 6.53857 13.0869L5.1219 11.6703C4.91648 11.4648 4.91648 11.1248 5.1219 10.9194C5.32732 10.714 5.66732 10.714 5.87273 10.9194L6.37565 11.4365V8.46859C6.37565 8.17817 6.61648 7.93734 6.9069 7.93734C7.19732 7.93734 7.43815 8.17817 7.43815 8.46859V11.4365L7.94815 10.9265C8.15357 10.7211 8.49357 10.7211 8.69898 10.9265C8.9044 11.1319 8.9044 11.4719 8.69898 11.6773Z" fill="white"/>
<path d="M12.3464 6.74027C13.0193 6.74735 13.9543 6.74735 14.7547 6.74735C15.1584 6.74735 15.3709 6.27277 15.0876 5.98944C14.0676 4.96235 12.2401 3.1136 11.1918 2.06527C10.9014 1.77485 10.3984 1.97319 10.3984 2.37694V4.84902C10.3984 5.88319 11.2768 6.74027 12.3464 6.74027Z" fill="white"/>
</svg>
