<svg width="17" height="17" viewBox="0 0 17 17" fill="none" xmlns="http://www.w3.org/2000/svg">
<path d="M14.815 7.47004H9.31497V1.97004C9.31497 1.72684 9.21835 1.49359 9.04638 1.32162C8.87441 1.14965 8.64117 1.05304 8.39797 1.05304C8.15476 1.05304 7.92152 1.14965 7.74955 1.32162C7.57758 1.49359 7.48096 1.72684 7.48096 1.97004V7.47004H1.98097C1.73776 7.47004 1.50452 7.56665 1.33255 7.73862C1.16058 7.91059 1.06396 8.14384 1.06396 8.38704C1.06396 8.63024 1.16058 8.86349 1.33255 9.03546C1.50452 9.20743 1.73776 9.30404 1.98097 9.30404H7.48096V14.804C7.48096 14.9245 7.50468 15.0437 7.55077 15.155C7.59685 15.2662 7.6644 15.3673 7.74955 15.4525C7.8347 15.5376 7.93579 15.6052 8.04704 15.6512C8.1583 15.6973 8.27754 15.721 8.39797 15.721C8.51839 15.721 8.63763 15.6973 8.74889 15.6512C8.86014 15.6052 8.96123 15.5376 9.04638 15.4525C9.13153 15.3673 9.19908 15.2662 9.24516 15.155C9.29125 15.0437 9.31497 14.9245 9.31497 14.804V9.30404H14.815C15.0582 9.30404 15.2914 9.20743 15.4634 9.03546C15.6354 8.86349 15.732 8.63024 15.732 8.38704C15.732 8.14384 15.6354 7.91059 15.4634 7.73862C15.2914 7.56665 15.0582 7.47004 14.815 7.47004Z" fill="white" stroke="white"/>
</svg>
