<svg width="14" height="14" viewBox="0 0 14 14" fill="none" xmlns="http://www.w3.org/2000/svg">
<path d="M12.8337 11.0833V12.8333H1.16699V11.0833C1.16699 10.7625 1.42949 10.5 1.75033 10.5H12.2503C12.5712 10.5 12.8337 10.7625 12.8337 11.0833Z" fill="#707070"/>
<path d="M4.08366 6.4165H2.91699V10.4998H4.08366V6.4165Z" fill="#707070"/>
<path d="M6.41667 6.4165H5.25V10.4998H6.41667V6.4165Z" fill="#707070"/>
<path d="M8.74967 6.4165H7.58301V10.4998H8.74967V6.4165Z" fill="#707070"/>
<path d="M11.0837 6.4165H9.91699V10.4998H11.0837V6.4165Z" fill="#707070"/>
<path d="M13.4163 13.271H0.583008C0.343841 13.271 0.145508 13.0727 0.145508 12.8335C0.145508 12.5943 0.343841 12.396 0.583008 12.396H13.4163C13.6555 12.396 13.8538 12.5943 13.8538 12.8335C13.8538 13.0727 13.6555 13.271 13.4163 13.271Z" fill="#707070"/>
<path d="M12.4662 3.35424L7.21616 1.25424C7.09949 1.20757 6.90116 1.20757 6.78449 1.25424L1.53449 3.35424C1.33033 3.4359 1.16699 3.67507 1.16699 3.89674V5.8334C1.16699 6.15424 1.42949 6.41674 1.75033 6.41674H12.2503C12.5712 6.41674 12.8337 6.15424 12.8337 5.8334V3.89674C12.8337 3.67507 12.6703 3.4359 12.4662 3.35424ZM7.00033 4.9584C6.51616 4.9584 6.12533 4.56757 6.12533 4.0834C6.12533 3.59924 6.51616 3.2084 7.00033 3.2084C7.48449 3.2084 7.87533 3.59924 7.87533 4.0834C7.87533 4.56757 7.48449 4.9584 7.00033 4.9584Z" fill="#707070"/>
</svg>
