<svg width="19" height="19" viewBox="0 0 19 19" fill="none" xmlns="http://www.w3.org/2000/svg">
<g clip-path="url(#clip0_3665_162388)">
<path d="M9.50055 0C2.28635 0 0 2.28635 0 9.49945C0 16.7125 2.28635 19 9.50055 19C16.7148 19 19 16.7136 19 9.49945C19 2.28525 16.7148 0 9.50055 0ZM9.50055 17.5144C3.41464 17.5144 1.48674 15.5854 1.48674 9.50055C1.48674 3.41574 3.41464 1.48563 9.50055 1.48563C15.5865 1.48563 17.5144 3.41464 17.5144 9.49945C17.5144 15.5843 15.5865 17.5133 9.50055 17.5133" fill="white"/>
<path d="M13.4728 5.90283C12.7967 5.30064 11.9144 4.98189 11.0089 5.01057H6.45605V14.6843H8.20087V11.5421C7.88764 10.9696 7.88764 10.2759 8.20087 9.70349V6.65392H10.8953C11.3607 6.64179 11.814 6.80281 12.167 7.10501C12.5045 7.38957 12.6931 7.81309 12.6787 8.25426C12.6931 8.68991 12.5045 9.10792 12.167 9.38585C11.8107 9.68364 11.3585 9.84136 10.8942 9.82812H9.40857C8.96961 10.0884 8.82513 10.6564 9.08542 11.0954C9.17365 11.2443 9.30269 11.3656 9.456 11.445H10.9615C11.8769 11.4748 12.7692 11.156 13.4574 10.5538C14.118 9.96488 14.4831 9.11343 14.4555 8.22889C14.4831 7.34766 14.1236 6.4973 13.4706 5.90393" fill="white"/>
</g>
<defs>
<clipPath id="clip0_3665_162388">
<rect width="19" height="19" fill="white"/>
</clipPath>
</defs>
</svg>
