<svg
  width="17"
  height="17"
  viewBox="0 0 22 22"
  fill="none"
  xmlns="http://www.w3.org/2000/svg"
>
  <path
    d="M21.4828 9.7676L19.8104 8.09518C19.5244 7.80911 19.2933 7.24797 19.2933 6.85187V4.47528C19.2933 3.50704 18.5011 2.71484 17.5329 2.71484H15.1673C14.7712 2.71484 14.21 2.48379 13.924 2.19772L12.2515 0.525299C11.5694 -0.156871 10.4471 -0.156871 9.76493 0.525299L8.07051 2.19772C7.79544 2.48379 7.2343 2.71484 6.8272 2.71484H4.46161C3.49337 2.71484 2.70117 3.50704 2.70117 4.47528V6.84087C2.70117 7.23697 2.47011 7.79811 2.18404 8.08418L0.511627 9.75659C-0.170542 10.4388 -0.170542 11.561 0.511627 12.2432L2.18404 13.9156C2.47011 14.2017 2.70117 14.7628 2.70117 15.1589V17.5245C2.70117 18.4928 3.49337 19.285 4.46161 19.285H6.8272C7.2233 19.285 7.78443 19.516 8.07051 19.8021L9.74292 21.4745C10.4251 22.1567 11.5474 22.1567 12.2295 21.4745L13.902 19.8021C14.188 19.516 14.7492 19.285 15.1453 19.285H17.5109C18.4791 19.285 19.2713 18.4928 19.2713 17.5245V15.1589C19.2713 14.7628 19.5023 14.2017 19.7884 13.9156L21.4608 12.2432C22.176 11.572 22.176 10.4498 21.4828 9.7676ZM6.59614 7.71009C6.59614 7.10494 7.09126 6.60981 7.69641 6.60981C8.30156 6.60981 8.79669 7.10494 8.79669 7.71009C8.79669 8.31524 8.31257 8.81036 7.69641 8.81036C7.09126 8.81036 6.59614 8.31524 6.59614 7.71009ZM8.27956 14.8949C8.11452 15.0599 7.90547 15.1369 7.69641 15.1369C7.48736 15.1369 7.27831 15.0599 7.11327 14.8949C6.79419 14.5758 6.79419 14.0477 7.11327 13.7286L13.7149 7.12694C14.034 6.80786 14.5621 6.80786 14.8812 7.12694C15.2003 7.44602 15.2003 7.97415 14.8812 8.29323L8.27956 14.8949ZM14.2981 15.412C13.6819 15.412 13.1868 14.9169 13.1868 14.3117C13.1868 13.7066 13.6819 13.2115 14.2871 13.2115C14.8922 13.2115 15.3873 13.7066 15.3873 14.3117C15.3873 14.9169 14.9032 15.412 14.2981 15.412Z"
    fill="white"
  />
</svg>