<svg width="14" height="12" viewBox="0 0 14 12" fill="none" xmlns="http://www.w3.org/2000/svg">
<path d="M13.4751 4.00886C11.853 1.47021 9.49165 0.00488281 6.99967 0.00488281C5.73797 0.0139404 4.50384 0.374997 3.43622 1.04741C2.25609 1.8038 1.26119 2.81593 0.525166 4.00886C0.180938 4.61623 0 5.30245 0 6.00058C0 6.69872 0.180938 7.38494 0.525166 7.99231C1.17427 9.15559 2.10966 10.1339 3.24271 10.8344C4.37576 11.5349 5.66893 11.9345 6.99967 11.9954C8.26145 11.986 9.49558 11.6246 10.5631 10.9519C11.7435 10.1959 12.7387 9.18407 13.4751 7.99137C13.8192 7.38412 14 6.69807 14 6.00012C14 5.30217 13.8192 4.61612 13.4751 4.00886ZM6.99967 8.83137C6.44034 8.83137 5.89358 8.66551 5.42852 8.35477C4.96346 8.04403 4.60099 7.60235 4.38695 7.08561C4.1729 6.56886 4.1169 6.00025 4.22602 5.45167C4.33514 4.9031 4.60448 4.3992 4.99998 4.0037C5.39548 3.6082 5.89938 3.33886 6.44795 3.22974C6.99653 3.12062 7.56514 3.17662 8.08189 3.39067C8.59864 3.60471 9.04031 3.96718 9.35105 4.43224C9.66179 4.8973 9.82765 5.44406 9.82765 6.00338C9.82814 6.3749 9.75533 6.74286 9.61338 7.08619C9.47144 7.42952 9.26315 7.74147 9.00045 8.00417C8.73775 8.26687 8.4258 8.47516 8.08247 8.6171C7.73914 8.75905 7.37118 8.83186 6.99967 8.83137Z" fill="#707070"/>
<path d="M6.99865 3.96875C6.59695 3.96875 6.20426 4.08782 5.8702 4.31092C5.53615 4.53402 5.27572 4.85113 5.12182 5.22219C4.96792 5.59324 4.92747 6.00159 5.00557 6.39563C5.08366 6.78967 5.27681 7.15172 5.5606 7.43603C5.84438 7.72033 6.20608 7.91414 6.59997 7.99296C6.99387 8.07178 7.40229 8.03208 7.77362 7.87887C8.14496 7.72565 8.46255 7.4658 8.68626 7.13216C8.90998 6.79851 9.02977 6.40604 9.03051 6.00434C9.03075 5.73727 8.97839 5.47276 8.87641 5.22592C8.77444 4.97909 8.62484 4.75475 8.43616 4.56573C8.24749 4.37671 8.02343 4.2267 7.77678 4.12427C7.53013 4.02184 7.26572 3.969 6.99865 3.96875Z" fill="#707070"/>
</svg>
