<svg width="42" height="42" viewBox="0 0 42 42" fill="none" xmlns="http://www.w3.org/2000/svg">
<path d="M21 0C5.05335 0 0 5.05335 0 21C0 36.9467 5.05335 42 21 42C36.9467 42 42 36.9467 42 21C42 5.05335 36.9467 0 21 0ZM21 38.7106C7.55619 38.7106 3.28944 34.4438 3.28944 21C3.28944 7.55619 7.55619 3.28944 21 3.28944C34.4438 3.28944 38.7106 7.55619 38.7106 21C38.7106 34.4438 34.4438 38.7106 21 38.7106Z" fill="#010101"/>
<path d="M29.784 13.0506C28.2942 11.7157 26.3396 11.0126 24.3373 11.0841H14.2783V32.4655H18.1398V25.5171C17.4486 24.2538 17.4486 22.7163 18.1398 21.453V14.7072H24.099C25.124 14.6834 26.1251 15.0409 26.9117 15.7084C27.6625 16.34 28.0797 17.2697 28.0439 18.247C28.0797 19.2123 27.6625 20.13 26.9117 20.7498C26.1251 21.4053 25.124 21.7509 24.099 21.7271H20.8095C19.8442 22.2992 19.5224 23.5625 20.0944 24.5279C20.2851 24.8616 20.5712 25.1238 20.9168 25.3026H24.242C26.2681 25.3741 28.2346 24.659 29.7602 23.3361C31.2261 22.037 32.0246 20.1539 31.965 18.1993C32.0246 16.2447 31.238 14.3735 29.784 13.0625" fill="#010101"/>
</svg>
