<svg width="20" height="20" viewBox="0 0 20 20" fill="none" xmlns="http://www.w3.org/2000/svg">
<path d="M14.1662 0H5.80026C2.16636 0 0 2.17 0 5.81V14.18C0 17.83 2.16636 20 5.80026 20H14.1562C17.7901 20 19.9565 17.83 19.9565 14.19V5.81C19.9665 2.17 17.8001 0 14.1662 0ZM13.9765 10.75H10.732V14C10.732 14.1989 10.6531 14.3897 10.5127 14.5303C10.3723 14.671 10.1818 14.75 9.98323 14.75C9.78465 14.75 9.59421 14.671 9.45379 14.5303C9.31338 14.3897 9.23449 14.1989 9.23449 14V10.75H5.98994C5.79136 10.75 5.60092 10.671 5.4605 10.5303C5.32008 10.3897 5.2412 10.1989 5.2412 10C5.2412 9.80109 5.32008 9.61032 5.4605 9.46967C5.60092 9.32902 5.79136 9.25 5.98994 9.25H9.23449V6C9.23449 5.80109 9.31338 5.61032 9.45379 5.46967C9.59421 5.32902 9.78465 5.25 9.98323 5.25C10.1818 5.25 10.3723 5.32902 10.5127 5.46967C10.6531 5.61032 10.732 5.80109 10.732 6V9.25H13.9765C14.1751 9.25 14.3656 9.32902 14.506 9.46967C14.6464 9.61032 14.7253 9.80109 14.7253 10C14.7253 10.1989 14.6464 10.3897 14.506 10.5303C14.3656 10.671 14.1751 10.75 13.9765 10.75Z" fill="black"/>
</svg>
