<svg width="14" height="14" viewBox="0 0 14 14" fill="none" xmlns="http://www.w3.org/2000/svg">
<path d="M12.1977 6.48652V3.92569C12.1977 3.44736 11.8361 2.90486 11.3869 2.72402L8.13773 1.39402C7.40857 1.09652 6.58607 1.09652 5.8569 1.39402L2.60773 2.72402C2.1644 2.90486 1.80273 3.44736 1.80273 3.92569V6.48652C1.80273 9.33902 3.87357 12.0107 6.70273 12.7924C6.89523 12.8449 7.10523 12.8449 7.29773 12.7924C10.1269 12.0107 12.1977 9.33902 12.1977 6.48652ZM7.43773 7.50736V9.04152C7.43773 9.28069 7.2394 9.47902 7.00023 9.47902C6.76107 9.47902 6.56273 9.28069 6.56273 9.04152V7.50736C5.97357 7.32069 5.5419 6.77236 5.5419 6.12486C5.5419 5.31986 6.19523 4.66652 7.00023 4.66652C7.80523 4.66652 8.45857 5.31986 8.45857 6.12486C8.45857 6.77819 8.0269 7.32069 7.43773 7.50736Z" fill="#707070"/>
</svg>
