<svg width="18" height="18" viewBox="0 0 18 18" fill="none" xmlns="http://www.w3.org/2000/svg">
<path d="M12.9463 0.377991L4.33926 3.23747C-1.44642 5.17239 -1.44642 8.32735 4.33926 10.2527L6.89373 11.101L7.74204 13.6555C9.66743 19.4412 12.8319 19.4412 14.7573 13.6555L17.6263 5.05801C18.9035 1.19771 16.8066 -0.908775 12.9463 0.377991ZM13.2513 5.50599L9.6293 9.14706C9.48633 9.29004 9.30523 9.35676 9.12413 9.35676C8.94302 9.35676 8.76192 9.29004 8.61895 9.14706C8.34253 8.87065 8.34253 8.41313 8.61895 8.13671L12.241 4.49564C12.5174 4.21923 12.9749 4.21923 13.2513 4.49564C13.5277 4.77206 13.5277 5.22958 13.2513 5.50599Z" fill="black"/>
</svg>
