<svg width="17" height="12" viewBox="0 0 17 12" fill="none" xmlns="http://www.w3.org/2000/svg">
<path d="M1.001 6.9842C0.783779 6.98398 0.57239 7.05451 0.398805 7.1851C0.225219 7.31569 0.0988791 7.49926 0.0388894 7.70804C-0.0211003 7.91682 -0.0114764 8.13945 0.0663057 8.34227C0.144088 8.54509 0.285797 8.71707 0.470005 8.8322L3.158 11.5202C3.25092 11.613 3.3612 11.6867 3.48257 11.7369C3.60394 11.7871 3.73401 11.813 3.86536 11.8129C3.99671 11.8129 4.12676 11.7869 4.24809 11.7366C4.36942 11.6863 4.47966 11.6126 4.5725 11.5197C4.66535 11.4268 4.73899 11.3165 4.78921 11.1951C4.83943 11.0738 4.86525 10.9437 4.86521 10.8124C4.86516 10.681 4.83924 10.5509 4.78894 10.4296C4.73863 10.3083 4.66492 10.198 4.572 10.1052L3.451 8.9852H11.001C11.2662 8.9852 11.5206 8.87985 11.7081 8.69231C11.8956 8.50477 12.001 8.25042 12.001 7.9852C12.001 7.71999 11.8956 7.46563 11.7081 7.2781C11.5206 7.09056 11.2662 6.9852 11.001 6.9852L1.001 6.9842ZM15.015 5.0152C15.2322 5.01542 15.4436 4.9449 15.6172 4.81431C15.7908 4.68371 15.9171 4.50014 15.9771 4.29137C16.0371 4.08259 16.0275 3.85995 15.9497 3.65713C15.8719 3.45431 15.7302 3.28233 15.546 3.1672L12.858 0.480203C12.6704 0.292695 12.4159 0.187406 12.1507 0.1875C11.8854 0.187594 11.631 0.293062 11.4435 0.480703C11.256 0.668344 11.1507 0.922786 11.1508 1.18806C11.1509 1.45333 11.2564 1.70769 11.444 1.8952L12.565 3.0152H5.015C4.74979 3.0152 4.49543 3.12056 4.3079 3.3081C4.12036 3.49563 4.015 3.74999 4.015 4.0152C4.015 4.28042 4.12036 4.53477 4.3079 4.72231C4.49543 4.90985 4.74979 5.0152 5.015 5.0152H15.015Z" fill="#707070"/>
</svg>
