<svg width="17" height="12" viewBox="0 0 17 12" fill="none" xmlns="http://www.w3.org/2000/svg">
<path d="M10.5818 10.2233H5.94474V2.10848H10.5818V10.2233Z" fill="#FF5F00"/>
<path d="M6.34719 6.16588C6.34633 5.37579 6.51841 4.59585 6.85038 3.88519C7.18236 3.17452 7.66552 2.55178 8.26325 2.06416C7.52331 1.45939 6.63469 1.08333 5.69897 0.978963C4.76326 0.874595 3.81818 1.04613 2.97176 1.47396C2.12534 1.90179 1.41172 2.56867 0.912458 3.39836C0.413197 4.22805 0.148438 5.1871 0.148438 6.16588C0.148438 7.14467 0.413197 8.10372 0.912458 8.93341C1.41172 9.7631 2.12534 10.43 2.97176 10.8578C3.81818 11.2856 4.76326 11.4572 5.69897 11.3528C6.63469 11.2484 7.52331 10.8724 8.26325 10.2676C7.66575 9.77977 7.18275 9.15699 6.85079 8.44638C6.51884 7.73576 6.34663 6.95593 6.34719 6.16588Z" fill="#EB001B"/>
<path d="M16.3781 6.16588C16.378 7.14473 16.1132 8.10381 15.6139 8.93352C15.1146 9.76323 14.4009 10.4301 13.5545 10.8579C12.7081 11.2857 11.7631 11.4572 10.8274 11.3528C9.89172 11.2484 9.00315 10.8724 8.26325 10.2676C8.86028 9.77942 9.34294 9.1564 9.67482 8.4459C10.0067 7.73541 10.1792 6.9558 10.1792 6.16588C10.1792 5.37596 10.0067 4.59636 9.67482 3.88586C9.34294 3.17537 8.86028 2.55235 8.26325 2.06416C9.00315 1.45933 9.89172 1.08341 10.8274 0.978991C11.7631 0.874572 12.7081 1.04607 13.5545 1.47387C14.4009 1.90168 15.1146 2.56854 15.6139 3.39825C16.1132 4.22796 16.378 5.18704 16.3781 6.16588Z" fill="#F79E1B"/>
</svg>
