<svg width="17" height="9" viewBox="0 0 17 9" fill="none" xmlns="http://www.w3.org/2000/svg">
<path fill-rule="evenodd" clip-rule="evenodd" d="M6.75326 1.23128H1.87236C1.32521 1.23128 0.881558 1.65293 0.881558 2.17326C0.881558 2.69359 1.32521 3.11491 1.87236 3.11491H4.36111L0.354761 6.92215C-0.0323161 7.29002 -0.0323161 7.88609 0.354761 8.25396C0.741838 8.62183 1.36903 8.62183 1.7561 8.25396L5.76211 4.44672V6.81166C5.76211 7.33166 6.20576 7.75363 6.75326 7.75363C7.30076 7.75363 7.74407 7.33199 7.74407 6.81166V2.17293C7.74407 1.65293 7.30041 1.23096 6.75326 1.23096" fill="black"/>
<path fill-rule="evenodd" clip-rule="evenodd" d="M9.60604 7.71362H14.4869C15.0341 7.71362 15.4781 7.29198 15.4781 6.77197C15.4781 6.25197 15.0344 5.83 14.4869 5.83H11.9985L16.0045 2.02276C16.3916 1.65488 16.3916 1.05881 16.0045 0.690943C15.6175 0.323071 14.9903 0.323071 14.6032 0.690943L10.5972 4.49818V2.13325C10.5972 1.61324 10.1535 1.1916 9.60639 1.1916C9.05923 1.1916 8.61523 1.61324 8.61523 2.13325V6.77197C8.61523 7.29198 9.05889 7.71362 9.60639 7.71362" fill="#FF7900"/>
</svg>
