<svg width="26" height="26" viewBox="0 0 26 26" fill="none" xmlns="http://www.w3.org/2000/svg">
<rect width="26" height="26" rx="13" fill="black"/>
<path fill-rule="evenodd" clip-rule="evenodd" d="M11.5944 9.80501H6.78239C6.24297 9.80501 5.80557 10.2207 5.80557 10.7337C5.80557 11.2467 6.24297 11.6621 6.78239 11.6621H9.23601L5.28621 15.4156C4.9046 15.7783 4.9046 16.3659 5.28621 16.7286C5.66782 17.0913 6.28616 17.0913 6.66777 16.7286L10.6172 12.9751V15.3067C10.6172 15.8193 11.0546 16.2354 11.5944 16.2354C12.1342 16.2354 12.5712 15.8197 12.5712 15.3067V10.7334C12.5712 10.2207 12.1338 9.80469 11.5944 9.80469" fill="white"/>
<path fill-rule="evenodd" clip-rule="evenodd" d="M14.4046 16.1956H19.2166C19.756 16.1956 20.1937 15.7799 20.1937 15.2673C20.1937 14.7546 19.7563 14.3386 19.2166 14.3386H16.7633L20.7127 10.585C21.0944 10.2224 21.0944 9.63469 20.7127 9.27201C20.3311 8.90933 19.7128 8.90933 19.3312 9.27201L15.3817 13.0255V10.694C15.3817 10.1813 14.9443 9.76561 14.4049 9.76561C13.8655 9.76561 13.4277 10.1813 13.4277 10.694V15.2673C13.4277 15.7799 13.8651 16.1956 14.4049 16.1956" fill="#FF7900"/>
</svg>
