<svg width="17" height="18" viewBox="0 0 17 18" fill="none" xmlns="http://www.w3.org/2000/svg">
<path d="M14.4219 9.5172C14.1599 9.5172 13.9403 9.31886 13.9119 9.05678C13.7419 7.49845 12.9061 6.09595 11.6169 5.20345C11.3832 5.04053 11.3265 4.72178 11.4894 4.48803C11.6524 4.25428 11.9711 4.19761 12.2049 4.36053C13.7419 5.43011 14.7336 7.10178 14.939 8.95053C14.9674 9.23386 14.7619 9.48886 14.4786 9.5172C14.4574 9.5172 14.4432 9.5172 14.4219 9.5172Z" fill="white"/>
<path d="M2.64933 9.55252C2.63516 9.55252 2.61391 9.55252 2.59975 9.55252C2.31641 9.52419 2.111 9.26919 2.13933 8.98585C2.33058 7.1371 3.30808 5.46544 4.831 4.38877C5.05766 4.22585 5.3835 4.28252 5.54641 4.50919C5.70933 4.74294 5.65266 5.06169 5.426 5.2246C4.151 6.13127 3.32225 7.53377 3.16641 9.08502C3.13808 9.35419 2.91141 9.55252 2.64933 9.55252Z" fill="white"/>
<path d="M11.3263 15.4459C10.455 15.8638 9.52001 16.0763 8.54251 16.0763C7.52251 16.0763 6.55209 15.8497 5.64543 15.3892C5.39043 15.2688 5.29126 14.9572 5.41876 14.7022C5.53918 14.4472 5.85084 14.348 6.10584 14.4684C6.55209 14.6951 7.02668 14.8509 7.50834 14.943C8.16001 15.0705 8.82584 15.0776 9.47751 14.9642C9.95918 14.8792 10.4338 14.7305 10.8729 14.518C11.135 14.3976 11.4467 14.4967 11.56 14.7588C11.6875 15.0138 11.5883 15.3255 11.3263 15.4459Z" fill="white"/>
<path d="M8.53461 1.92383C7.43669 1.92383 6.53711 2.81633 6.53711 3.92133C6.53711 5.02633 7.42961 5.91883 8.53461 5.91883C9.63961 5.91883 10.5321 5.02633 10.5321 3.92133C10.5321 2.81633 9.63961 1.92383 8.53461 1.92383Z" fill="white"/>
<path d="M3.57758 10.3247C2.47966 10.3247 1.58008 11.2172 1.58008 12.3222C1.58008 13.4272 2.47258 14.3197 3.57758 14.3197C4.68258 14.3197 5.57508 13.4272 5.57508 12.3222C5.57508 11.2172 4.67549 10.3247 3.57758 10.3247Z" fill="white"/>
<path d="M13.4233 10.3247C12.3254 10.3247 11.4258 11.2172 11.4258 12.3222C11.4258 13.4272 12.3183 14.3197 13.4233 14.3197C14.5283 14.3197 15.4208 13.4272 15.4208 12.3222C15.4208 11.2172 14.5283 10.3247 13.4233 10.3247Z" fill="white"/>
</svg>
