<svg width="21" height="20" viewBox="0 0 21 20" fill="none" xmlns="http://www.w3.org/2000/svg">
<path d="M6.49023 0.829102C8.0137 0.162303 9.67975 -0.113755 11.3369 0.0253906C12.994 0.164559 14.5906 0.714499 15.9814 1.62598C17.3722 2.53741 18.5137 3.78142 19.3027 5.24512C20.0917 6.70895 20.5033 8.34685 20.5 10.0098C20.4993 11.3911 20.2112 12.7577 19.6533 14.0215C19.0955 15.2852 18.2799 16.4183 17.2598 17.3496C17.2698 17.3596 17.2705 17.3601 17.2705 17.3701C17.1706 17.46 17.0601 17.5497 16.9502 17.6396C16.8911 17.6833 16.8344 17.7307 16.7803 17.7803C16.6003 17.9303 16.41 18.07 16.21 18.21C16.1457 18.2599 16.0787 18.3063 16.0098 18.3496C15.8098 18.4796 15.6101 18.59 15.4102 18.71C15.3403 18.7499 15.2703 18.7999 15.1904 18.8398C14.9804 18.9498 14.7696 19.0496 14.5596 19.1396C14.4817 19.1803 14.402 19.2175 14.3203 19.25C14.1103 19.34 13.8801 19.4102 13.6602 19.4902C13.5787 19.5124 13.4984 19.5392 13.4199 19.5703C13.19 19.6502 12.9401 19.6998 12.7002 19.7598C12.6204 19.7697 12.5503 19.7995 12.4805 19.8096C12.1997 19.8683 11.9154 19.9125 11.6299 19.9404C11.5909 19.9519 11.5503 19.9582 11.5098 19.96C11.1798 19.9899 10.8399 20.0098 10.5 20.0098C10.1602 20.0098 9.82031 19.9899 9.48047 19.96C9.44154 19.9485 9.4009 19.9422 9.36035 19.9404C9.07487 19.9125 8.79053 19.8683 8.50977 19.8096C8.43533 19.7988 8.36183 19.7822 8.29004 19.7598C8.05017 19.6998 7.81018 19.6403 7.57031 19.5703C7.48892 19.5482 7.40847 19.5214 7.33008 19.4902C7.11008 19.4202 6.88992 19.34 6.66992 19.25C6.58811 19.2175 6.50771 19.1804 6.42969 19.1396C6.21427 19.0518 6.00377 18.9517 5.7998 18.8398C5.72987 18.7999 5.65 18.7499 5.58008 18.71C5.37324 18.6019 5.1732 18.4812 4.98047 18.3496L4.78027 18.21C4.59031 18.07 4.38993 17.9302 4.20996 17.7803C4.15088 17.7366 4.09422 17.6893 4.04004 17.6396C3.94007 17.5497 3.81967 17.4701 3.71973 17.3701C3.72973 17.3601 3.73047 17.3596 3.73047 17.3496C2.50659 16.2238 1.58211 14.811 1.04199 13.2383C0.501884 11.6654 0.362653 9.98206 0.636719 8.3418C0.91082 6.70167 1.58931 5.15548 2.61133 3.84375C3.6334 2.53196 4.96682 1.4959 6.49023 0.829102ZM10.5 1.49902C8.82244 1.49903 7.18212 1.9955 5.78613 2.92578C4.39018 3.85606 3.30106 5.17929 2.65527 6.72754C2.00957 8.27575 1.83606 9.98052 2.15723 11.627C2.47844 13.2734 3.27966 14.7885 4.45996 15.9805C4.77268 15.5925 5.1437 15.255 5.55957 14.9805C7.05255 14.0873 8.76023 13.6152 10.5 13.6152C12.2398 13.6152 13.9474 14.0873 15.4404 14.9805C15.8584 15.2523 16.2298 15.5902 16.54 15.9805C17.7203 14.7885 18.5216 13.2734 18.8428 11.627C19.1639 9.98051 18.9904 8.27575 18.3447 6.72754C17.6989 5.17928 16.6098 3.85606 15.2139 2.92578C13.8179 1.9955 12.1776 1.49902 10.5 1.49902ZM10.5 4.92969C11.4835 4.92772 12.4287 5.31235 13.1309 6.00098C13.833 6.6896 14.2358 7.62707 14.2529 8.61035C14.27 9.59381 13.8996 10.5451 13.2217 11.2578C12.5438 11.9703 11.6128 12.3878 10.6299 12.4199H10.4492C9.45613 12.4132 8.50614 12.0116 7.80859 11.3047C7.11117 10.5977 6.72286 9.64249 6.72949 8.64941C6.7362 7.65636 7.1369 6.70634 7.84375 6.00879C8.55076 5.31115 9.50676 4.92306 10.5 4.92969Z" fill="black"/>
</svg>
