<svg width="22" height="22" viewBox="0 0 22 22" fill="none" xmlns="http://www.w3.org/2000/svg">
<path d="M21.1522 10.1522H18.9697L20.9041 8.21782C21.2351 7.88677 21.2351 7.35019 20.9041 7.01914C20.573 6.68835 20.0365 6.68835 19.7054 7.01914L16.5726 10.152H15.1429C15.0352 9.62202 14.8275 9.11988 14.5296 8.66858L17.5231 5.67506C17.8539 5.34401 17.8539 4.80744 17.5231 4.47638C17.192 4.14559 16.6555 4.14559 16.3244 4.47638L13.3322 7.46858C12.8809 7.16984 12.3782 6.9622 11.8475 6.85573V5.4269L14.9806 2.29381C15.3114 1.96275 15.3114 1.42618 14.9806 1.09513C14.6495 0.764073 14.113 0.764073 13.7819 1.09513L11.8475 3.02954V0.847498C11.8475 0.37952 11.468 0 11 0C10.532 0 10.1525 0.37952 10.1525 0.847498V3.03007L8.21809 1.09566C7.88703 0.764602 7.35046 0.764602 7.01941 1.09566C6.68835 1.42671 6.68835 1.96328 7.01941 2.29434L10.1522 5.42717V6.8605C9.61646 6.97147 9.11749 7.1844 8.67653 7.47785L5.67533 4.47665C5.34427 4.14586 4.8077 4.14586 4.47665 4.47665C4.14559 4.8077 4.14559 5.34427 4.47665 5.67533L7.48103 8.67971C7.19102 9.12014 6.98127 9.61805 6.87295 10.1522H5.4269L2.29407 7.01941C1.96302 6.68862 1.42645 6.68862 1.09539 7.01941C0.764338 7.35046 0.764338 7.88703 1.09539 8.21809L3.02981 10.1525H0.847498C0.37952 10.1525 0 10.532 0 11C0 11.468 0.37952 11.8475 0.847498 11.8475H3.03007L1.09566 13.7819C0.764602 14.113 0.764602 14.6495 1.09566 14.9806C1.26118 15.1461 1.47809 15.2288 1.695 15.2288C1.9119 15.2288 2.12881 15.1461 2.29434 14.9806L5.42717 11.8478H6.87507C6.98233 12.3727 7.18864 12.8701 7.48474 13.3168L4.47691 16.3247C4.14586 16.6557 4.14586 17.1923 4.47691 17.5234C4.64244 17.6889 4.85934 17.7715 5.07625 17.7715C5.29316 17.7715 5.51006 17.6889 5.67559 17.5234L8.68289 14.5161C9.12968 14.8124 9.62705 15.0193 10.1525 15.1268V16.5728L7.01967 19.7057C6.68862 20.0367 6.68862 20.5733 7.01967 20.9043C7.35072 21.2354 7.8873 21.2354 8.21835 20.9043L10.1528 18.9699V21.1525C10.1528 21.6205 10.5323 22 11.0003 22C11.4682 22 11.8478 21.6205 11.8478 21.1525V18.9699L13.7822 20.9043C13.9477 21.0699 14.1646 21.1525 14.3815 21.1525C14.5984 21.1525 14.8153 21.0699 14.9809 20.9043C15.3116 20.5733 15.3116 20.0367 14.9809 19.7057L11.8478 16.5726V15.13C12.3753 15.024 12.8751 14.8185 13.3243 14.5224L16.3247 17.5228C16.4902 17.6884 16.7071 17.771 16.924 17.771C17.1409 17.771 17.3578 17.6884 17.5234 17.5228C17.8541 17.1918 17.8541 16.6552 17.5234 16.3241L14.5261 13.3269C14.8259 12.8775 15.0346 12.3764 15.1427 11.8472H16.5728L19.7057 14.9801C19.8712 15.1456 20.0881 15.2282 20.305 15.2282C20.5219 15.2282 20.7388 15.1456 20.9043 14.9801C21.2354 14.649 21.2354 14.1124 20.9043 13.7814L18.9699 11.847H21.1525C21.6205 11.847 22 11.4674 22 10.9995C22 10.5315 21.6205 10.152 21.1525 10.152L21.1522 10.1522ZM11.0087 13.5179C11.0072 13.5179 11.0053 13.5179 11.0037 13.5179C9.61143 13.515 8.48108 12.3801 8.48399 10.9878C8.4869 9.59739 9.61884 8.4681 11.0087 8.4681C11.0103 8.4681 11.0122 8.4681 11.0138 8.4681C11.6849 8.46942 12.316 8.73109 12.7914 9.20489C13.2681 9.68558 13.5316 10.3231 13.5335 10.9997C13.5316 11.6735 13.2679 12.3062 12.7903 12.7816C12.3136 13.2562 11.6812 13.5176 11.0087 13.5176V13.5179Z" fill="#020202"/>
</svg>
